<?xml version="1.0" standalone="no"?>
<!DOCTYPE svg PUBLIC "-//W3C//DTD SVG 20010904//EN"
 "http://www.w3.org/TR/2001/REC-SVG-20010904/DTD/svg10.dtd">
<svg version="1.0" xmlns="http://www.w3.org/2000/svg"
 width="128.000000pt" height="128.000000pt" viewBox="0 0 128.000000 128.000000"
 preserveAspectRatio="xMidYMid meet">
<metadata>
Created by potrace 1.11, written by Peter Selinger 2001-2013
</metadata>
<g transform="translate(0.000000,128.000000) scale(0.100000,-0.100000)"
fill="#000000" stroke="none">
<path d="M637 1274 c-3 -3 -51 -8 -106 -9 -56 -2 -105 -6 -111 -10 -5 -3 -14
-24 -20 -46 -11 -39 -12 -40 -30 -24 -46 42 -81 -15 -74 -122 2 -35 0 -63 -4
-64 -70 -8 -168 -51 -186 -82 -24 -41 64 -59 149 -32 20 6 21 2 20 -72 0 -65
4 -87 27 -131 14 -29 25 -58 24 -65 -1 -6 -8 -46 -15 -87 -19 -112 -29 -156
-58 -252 l-26 -87 -46 -17 c-53 -20 -77 -38 -84 -64 -10 -40 34 -62 126 -61
58 0 74 4 94 23 12 12 23 30 23 40 0 11 7 18 20 18 25 0 26 -17 3 -24 -15 -4
-15 -5 1 -3 27 3 32 27 7 34 -11 3 -18 9 -15 14 3 5 11 6 17 2 9 -5 9 -3 0 8
-9 11 -5 30 19 86 l30 72 39 -25 c21 -13 43 -24 49 -24 23 0 9 -41 -17 -51
-42 -15 -75 -57 -63 -80 13 -23 13 -42 0 -34 -5 3 -10 3 -10 -2 1 -13 49 -45
59 -39 5 3 14 0 20 -8 9 -11 6 -13 -19 -12 -16 0 -32 6 -35 13 -2 7 -9 13 -15
13 -6 0 -4 -8 6 -17 10 -10 35 -18 60 -19 l43 -2 -26 24 c-14 13 -30 21 -35
18 -13 -8 -38 15 -32 31 4 9 20 13 55 10 67 -4 83 1 104 38 11 18 17 32 15 32
-2 0 2 17 9 37 10 30 23 43 68 68 31 16 58 29 59 27 16 -16 62 -133 55 -140
-11 -11 -3 -37 11 -37 6 0 5 6 -2 15 -7 8 -8 15 -2 15 10 0 37 -56 31 -64 -2
-2 5 -14 16 -27 11 -12 14 -19 8 -15 -7 4 -13 2 -13 -3 0 -6 11 -11 25 -11 14
0 25 -6 25 -12 0 -9 4 -8 10 2 5 8 10 10 10 4 0 -6 12 -10 28 -8 92 10 145 18
162 24 3 1 9 2 14 1 5 -1 4 5 -4 13 -7 9 -9 16 -5 16 4 0 2 7 -5 15 -7 8 -14
29 -16 46 -2 17 -10 50 -18 72 -8 23 -17 74 -20 112 -9 92 -12 102 -40 109
-27 7 -33 18 -42 84 -3 26 -9 64 -14 85 -5 22 -4 37 2 37 5 0 18 21 30 46 44
101 -22 218 -128 226 -27 3 -49 31 -41 53 3 7 23 16 44 20 50 9 97 38 111 70
17 37 -2 41 -76 16 -34 -12 -65 -21 -70 -21 -4 0 -13 26 -20 59 -21 101 -76
144 -102 80 l-13 -31 -17 41 c-17 44 -42 75 -53 65z m227 -519 c-4 -8 -8 -15
-10 -15 -2 0 -4 7 -4 15 0 8 4 15 10 15 5 0 7 -7 4 -15z m72 -413 c14 -9 45
-122 34 -122 -5 0 -19 21 -31 48 -12 26 -26 55 -31 65 -9 18 7 24 28 9z"/>
<path d="M663 179 c3 -9 0 -22 -6 -28 -8 -8 -8 -11 1 -11 7 0 12 5 12 11 0 5
6 7 13 3 7 -5 7 -1 -3 12 -22 29 -24 30 -17 13z"/>
<path d="M690 181 c0 -6 5 -11 11 -11 5 0 7 -4 4 -10 -3 -5 -1 -10 4 -10 16 0
13 16 -4 30 -10 9 -15 9 -15 1z"/>
<path d="M743 183 c-7 -3 -13 -9 -13 -15 0 -6 7 -5 16 3 15 12 16 11 10 -11
l-7 -25 14 23 c7 12 15 21 18 20 2 -2 3 -1 1 1 -4 7 -25 9 -39 4z"/>
<path d="M391 165 c-1 -11 9 -26 22 -34 21 -13 21 -13 6 5 -9 10 -19 26 -22
34 -4 11 -6 9 -6 -5z"/>
<path d="M631 162 c-17 -31 -13 -40 5 -14 9 13 14 26 11 29 -3 2 -10 -4 -16
-15z"/>
<path d="M775 150 c-3 -5 -1 -10 4 -10 6 0 11 5 11 10 0 6 -2 10 -4 10 -3 0
-8 -4 -11 -10z"/>
<path d="M725 140 c-3 -5 -1 -10 4 -10 6 0 11 5 11 10 0 6 -2 10 -4 10 -3 0
-8 -4 -11 -10z"/>
<path d="M1122 143 c-8 -3 -2 -15 20 -35 31 -28 31 -29 8 -22 -14 3 -22 3 -18
-1 8 -9 58 -16 58 -8 0 2 -14 16 -30 30 -17 13 -28 29 -24 34 6 10 5 10 -14 2z"/>
<path d="M1150 144 c0 -8 63 -64 72 -64 3 0 -10 16 -29 35 -35 35 -43 40 -43
29z"/>
<path d="M596 125 c-3 -8 -1 -15 4 -15 6 0 10 7 10 15 0 8 -2 15 -4 15 -2 0
-6 -7 -10 -15z"/>
<path d="M690 129 c0 -5 5 -7 10 -4 6 3 10 8 10 11 0 2 -4 4 -10 4 -5 0 -10
-5 -10 -11z"/>
<path d="M623 108 c-18 -18 -24 -19 -37 -8 -10 7 -16 8 -16 2 0 -6 6 -12 13
-15 9 -3 7 -10 -6 -23 -17 -18 -18 -18 -43 9 -13 15 -29 27 -34 27 -6 0 5 -14
23 -31 17 -17 31 -37 29 -43 -2 -6 10 3 25 21 15 17 41 43 56 57 15 14 24 26
20 26 -5 0 -18 -10 -30 -22z"/>
<path d="M673 109 c1 -18 6 -25 14 -22 7 3 13 9 13 15 0 5 -4 7 -9 3 -5 -3
-12 3 -14 12 -3 10 -4 6 -4 -8z"/>
<path d="M763 123 c9 -3 15 -9 12 -14 -4 -5 -2 -9 4 -9 5 0 12 6 15 13 5 10 7
10 12 0 3 -7 10 -13 15 -13 6 0 8 4 5 9 -4 5 -1 11 6 13 7 3 -10 4 -37 5 -28
0 -42 -2 -32 -4z"/>
<path d="M1210 121 c0 -5 7 -12 16 -15 14 -5 15 -4 4 9 -14 17 -20 19 -20 6z"/>
<path d="M395 101 c-4 -14 -13 -18 -29 -15 -18 3 -28 -3 -40 -24 l-17 -27 20
23 c19 22 38 31 26 12 -3 -5 -1 -10 4 -10 6 0 11 4 11 9 0 6 8 8 19 6 14 -2
19 3 19 21 0 29 -5 31 -13 5z"/>
<path d="M713 100 c1 -11 5 -20 9 -20 3 0 6 9 5 20 -1 11 -5 20 -9 20 -3 0 -6
-9 -5 -20z"/>
<path d="M460 100 c0 -5 5 -10 11 -10 5 0 7 5 4 10 -3 6 -8 10 -11 10 -2 0 -4
-4 -4 -10z"/>
<path d="M542 90 c7 -11 17 -20 22 -20 5 0 1 9 -9 20 -10 11 -20 20 -22 20 -2
0 2 -9 9 -20z"/>
<path d="M645 100 c-3 -5 -1 -10 4 -10 6 0 11 5 11 10 0 6 -2 10 -4 10 -3 0
-8 -4 -11 -10z"/>
<path d="M740 99 c0 -5 5 -7 10 -4 6 3 10 8 10 11 0 2 -4 4 -10 4 -5 0 -10 -5
-10 -11z"/>
<path d="M754 78 c-3 -5 -3 -12 0 -15 3 -4 6 -1 6 5 0 7 5 12 11 12 5 0 7 -4
4 -10 -3 -5 -2 -10 4 -10 5 0 12 6 15 13 5 10 7 10 12 0 3 -7 10 -13 15 -13 6
0 7 5 4 10 -3 6 -2 10 4 10 5 0 12 -5 14 -10 3 -6 4 -5 3 2 -3 15 -83 21 -92
6z"/>
<path d="M607 56 c-22 -20 -24 -25 -10 -30 9 -4 18 -4 21 -1 3 3 -1 5 -8 5 -9
0 -5 9 10 25 30 32 21 33 -13 1z"/>
<path d="M650 78 c0 -2 9 -11 20 -21 11 -9 20 -13 20 -7 0 5 -9 14 -20 20 -11
6 -20 9 -20 8z"/>
<path d="M704 66 c24 -19 36 -20 36 -4 0 6 -3 8 -6 5 -4 -3 -16 -2 -28 4 -20
10 -20 10 -2 -5z"/>
<path d="M375 49 c-4 -6 -4 -13 -1 -16 3 -4 6 -1 6 6 0 8 7 11 15 7 8 -3 15
-1 15 4 0 13 -27 13 -35 -1z"/>
<path d="M637 53 c-4 -3 -7 -11 -7 -17 0 -6 5 -5 12 2 6 6 9 14 7 17 -3 3 -9
2 -12 -2z"/>
<path d="M656 35 c-3 -8 -1 -15 4 -15 6 0 10 7 10 15 0 8 -2 15 -4 15 -2 0 -6
-7 -10 -15z"/>
<path d="M700 41 c0 -9 30 -24 36 -18 2 1 -6 8 -16 15 -11 7 -20 8 -20 3z"/>
<path d="M750 40 c0 -5 7 -7 15 -4 8 4 15 8 15 10 0 2 -7 4 -15 4 -8 0 -15 -4
-15 -10z"/>
<path d="M790 40 c0 -5 5 -10 10 -10 6 0 10 5 10 10 0 6 -4 10 -10 10 -5 0
-10 -4 -10 -10z"/>
<path d="M820 46 c0 -2 7 -6 15 -10 8 -3 15 -1 15 4 0 6 -7 10 -15 10 -8 0
-15 -2 -15 -4z"/>
</g>
</svg>
